<?xml version="1.0" encoding="UTF-8"?>
<svg xmlns="http://www.w3.org/2000/svg" xmlns:xlink="http://www.w3.org/1999/xlink" width="337px" height="150px" viewBox="0 0 337 150" version="1.1">
<g id="surface1">
<path style=" stroke:none;fill-rule:evenodd;fill:rgb(0%,0%,0%);fill-opacity:1;" d="M 44.410156 68.601562 L 33.34375 94.183594 C 30.335938 101.207031 28.445312 105.421875 27.671875 106.835938 C 26.941406 108.25 26.304688 109.117188 25.757812 109.4375 C 25.257812 109.710938 23.980469 109.847656 21.933594 109.847656 C 18.972656 109.847656 17.492188 109.414062 17.492188 108.546875 C 17.492188 106.996094 25.507812 89.691406 41.542969 56.632812 C 39.128906 45.597656 37.054688 38.460938 35.324219 35.226562 C 33.59375 31.988281 31.429688 30.367188 28.832031 30.367188 C 26.144531 30.367188 23.664062 32.375 21.386719 36.386719 L 20.292969 38.371094 L 19.335938 36.933594 C 22.160156 26.402344 25.78125 21.136719 30.199219 21.136719 C 33.296875 21.136719 35.824219 23.074219 37.785156 26.949219 C 39.742188 30.824219 42.453125 41.199219 45.914062 58.070312 C 49.742188 76.71875 53.203125 88.644531 56.300781 93.839844 C 59.398438 98.992188 62.519531 101.570312 65.660156 101.570312 C 66.707031 101.570312 67.640625 101.320312 68.460938 100.816406 C 69.28125 100.316406 70.988281 97.921875 73.585938 93.636719 L 74.816406 95.277344 C 72.628906 102.574219 70.785156 107.085938 69.28125 108.820312 C 67.824219 110.507812 66.140625 111.351562 64.226562 111.351562 C 60.71875 111.351562 57.257812 108.066406 53.839844 101.5 C 50.425781 94.9375 47.28125 83.96875 44.410156 68.601562 "/>
<path style=" stroke:none;fill-rule:evenodd;fill:rgb(0%,0%,0%);fill-opacity:1;" d="M 109.664062 53.761719 C 118.226562 53.761719 125.21875 56.472656 130.636719 61.898438 C 136.105469 67.324219 138.835938 74.074219 138.835938 82.144531 C 138.835938 89.851562 136.105469 96.644531 130.636719 102.527344 C 125.171875 108.363281 117.929688 111.28125 108.910156 111.28125 C 100.164062 111.28125 93.128906 108.636719 87.796875 103.347656 C 82.515625 98.011719 79.871094 91.015625 79.871094 82.351562 C 79.871094 77.378906 81.285156 72.433594 84.109375 67.507812 C 86.976562 62.539062 90.714844 59.003906 95.3125 56.90625 C 99.960938 54.808594 104.742188 53.761719 109.664062 53.761719 M 112.121094 56.90625 C 105.0625 56.90625 99.414062 60.714844 95.175781 68.328125 C 90.988281 75.898438 88.890625 83.078125 88.890625 89.875 C 88.890625 95.484375 90.484375 99.90625 93.675781 103.144531 C 96.863281 106.335938 100.960938 107.929688 105.972656 107.929688 C 112.851562 107.929688 118.453125 104.535156 122.78125 97.738281 C 127.109375 90.898438 129.273438 83.648438 129.273438 75.988281 C 129.273438 69.789062 127.609375 65.070312 124.285156 61.832031 C 121.003906 58.546875 116.949219 56.90625 112.121094 56.90625 "/>
<path style=" stroke:none;fill-rule:evenodd;fill:rgb(0%,0%,0%);fill-opacity:1;" d="M 102.488281 42.75 L 110.960938 28.042969 C 113.421875 23.757812 115.855469 20.65625 118.273438 18.742188 C 119.273438 17.921875 120.367188 17.511719 121.550781 17.507812 C 122.78125 17.511719 123.761719 17.921875 124.488281 18.742188 C 125.21875 19.5625 125.582031 20.519531 125.582031 21.613281 C 125.582031 22.617188 125.261719 23.710938 124.625 24.898438 C 123.988281 26.035156 122.460938 27.585938 120.046875 29.546875 L 103.992188 42.75 L 103.238281 42.816406 L 102.488281 42.75 "/>
<path style=" stroke:none;fill-rule:evenodd;fill:rgb(0%,0%,0%);fill-opacity:1;" d="M 145.738281 68.191406 L 144.304688 67.234375 C 147.992188 58.25 151.523438 53.761719 154.894531 53.761719 C 159.039062 53.761719 163.117188 60.210938 167.125 73.117188 C 171.179688 86.019531 173.773438 96.714844 174.914062 105.195312 C 180.699219 95.390625 184.136719 88.324219 185.230469 83.992188 C 186.324219 79.613281 186.871094 75.808594 186.871094 72.570312 C 186.871094 70.472656 186.597656 68.054688 186.050781 65.320312 C 185.59375 63.085938 185.367188 61.445312 185.367188 60.394531 C 185.367188 55.972656 187.304688 53.761719 191.175781 53.761719 C 193.132812 53.761719 194.683594 54.71875 195.820312 56.632812 C 196.960938 58.503906 197.527344 60.851562 197.527344 63.679688 C 197.527344 70.335938 192.425781 82.191406 182.222656 99.246094 C 178.71875 105.125 176.667969 108.683594 176.074219 109.914062 L 177.03125 116.480469 C 178.125 123.183594 178.671875 128.3125 178.671875 131.871094 C 178.671875 140.214844 176.757812 144.386719 172.933594 144.386719 C 169.105469 144.386719 167.191406 140.671875 167.191406 133.238281 C 167.191406 126.351562 168.945312 118.761719 172.453125 110.460938 C 170.859375 100.839844 168.648438 91.972656 165.828125 83.855469 C 163.046875 75.738281 160.746094 70.519531 158.925781 68.191406 C 157.148438 65.867188 155.304688 64.703125 153.390625 64.703125 C 151.476562 64.703125 148.925781 65.867188 145.738281 68.191406 "/>
<path style=" stroke:none;fill-rule:evenodd;fill:rgb(0%,0%,0%);fill-opacity:1;" d="M 235.929688 53.761719 C 244.492188 53.761719 251.484375 56.472656 256.902344 61.898438 C 262.371094 67.324219 265.101562 74.074219 265.101562 82.144531 C 265.101562 89.851562 262.371094 96.644531 256.902344 102.527344 C 251.4375 108.363281 244.195312 111.28125 235.175781 111.28125 C 226.429688 111.28125 219.394531 108.636719 214.0625 103.347656 C 208.78125 98.011719 206.136719 91.015625 206.136719 82.351562 C 206.136719 77.378906 207.550781 72.433594 210.375 67.507812 C 213.242188 62.539062 216.980469 59.003906 221.578125 56.90625 C 226.226562 54.808594 231.007812 53.761719 235.929688 53.761719 M 238.386719 56.90625 C 231.328125 56.90625 225.679688 60.714844 221.441406 68.328125 C 217.253906 75.898438 215.15625 83.078125 215.15625 89.875 C 215.15625 95.484375 216.75 99.90625 219.941406 103.144531 C 223.128906 106.335938 227.226562 107.929688 232.238281 107.929688 C 239.117188 107.929688 244.71875 104.535156 249.046875 97.738281 C 253.375 90.898438 255.539062 83.648438 255.539062 75.988281 C 255.539062 69.789062 253.875 65.070312 250.550781 61.832031 C 247.269531 58.546875 243.214844 56.90625 238.386719 56.90625 "/>
<path style=" stroke:none;fill-rule:evenodd;fill:rgb(0%,0%,0%);fill-opacity:1;" d="M 306.441406 101.5 C 310.675781 101.5 313.773438 102.734375 315.734375 105.195312 C 317.738281 107.65625 318.738281 110.710938 318.738281 114.359375 C 318.738281 119.058594 317.097656 122.886719 313.820312 125.851562 C 310.585938 128.859375 306.667969 130.367188 302.066406 130.367188 C 299.746094 130.367188 297.945312 129.863281 296.667969 128.859375 C 295.441406 127.902344 294.824219 126.761719 294.824219 125.441406 C 294.824219 124.300781 295.257812 123.34375 296.125 122.566406 C 296.988281 121.792969 298.035156 121.40625 299.265625 121.40625 C 300.40625 121.40625 301.90625 121.859375 303.777344 122.773438 C 305.824219 123.820312 307.488281 124.347656 308.761719 124.347656 C 310.675781 124.347656 312.269531 123.617188 313.546875 122.15625 C 314.820312 120.746094 315.460938 118.988281 315.460938 116.890625 C 315.460938 113.015625 312.816406 111.078125 307.535156 111.078125 L 301.726562 111.144531 C 293.570312 111.144531 287.125 108.546875 282.390625 103.347656 C 277.652344 98.148438 275.285156 91.265625 275.285156 82.691406 C 275.285156 74.257812 277.902344 67.324219 283.140625 61.898438 C 288.378906 56.472656 295.167969 53.761719 303.503906 53.761719 C 307.554688 53.761719 311.222656 54.511719 314.503906 56.015625 C 317.78125 57.476562 319.421875 59.550781 319.421875 62.242188 C 319.421875 63.746094 318.921875 64.976562 317.917969 65.933594 C 316.917969 66.847656 315.6875 67.304688 314.230469 67.304688 C 312.089844 67.304688 309.8125 66.09375 307.398438 63.679688 C 305.121094 61.445312 302.316406 60.328125 298.992188 60.328125 C 292.933594 60.328125 288.015625 62.46875 284.234375 66.753906 C 280.453125 71.042969 278.5625 76.21875 278.5625 82.28125 C 278.5625 87.84375 280.316406 92.472656 283.824219 96.167969 C 287.378906 99.816406 292.910156 101.636719 300.425781 101.636719 L 306.441406 101.5 "/>
</g>
</svg>
